<svg xmlns="http://www.w3.org/2000/svg" width="18" height="18" viewBox="0 0 18 18">
    <path fill="#EB6E5E" fill-rule="evenodd" d="M12.426 9l5.114 5.113c.307.307.46.682.46 1.125 0 .444-.153.835-.46 1.177l-1.125 1.124c-.342.308-.733.461-1.177.461-.443 0-.818-.153-1.125-.46L9 12.425l-5.113 5.113A1.53 1.53 0 0 1 2.76 18c-.443 0-.835-.153-1.176-.46L.46 16.414A1.708 1.708 0 0 1 0 15.238c0-.443.153-.818.46-1.125L5.574 9 .46 3.886A1.529 1.529 0 0 1 0 2.76c0-.443.153-.835.46-1.176L1.585.46C1.926.153 2.318 0 2.76 0c.443 0 .818.153 1.126.46L9 5.574 14.113.46A1.53 1.53 0 0 1 15.238 0c.444 0 .835.153 1.177.46l1.125 1.125c.307.341.46.733.46 1.176 0 .443-.153.819-.46 1.125L12.426 9z"/>
</svg>
