<svg xmlns="http://www.w3.org/2000/svg" width="42" height="42" viewBox="0 0 42 42">
    <g fill="none" fill-rule="evenodd" transform="translate(1 1)">
        <path fill="#2C9778" d="M28.293 22.008l-1.696.118-.134.05-7.609 12.737.087.02 1.591.067.313-.088 7.666-12.916zM20.534 5.005l-1.58.064-.1.035 7.792 15.143-7.778 5.553.05.017 1.63.041.313-.059 7.778-5.554L20.797 5zM12.657 22.009l-1.483.121-.045.046.239.169 7.367 6.088 1.793-.975-.094-.052.047.008-7.616-5.418z"/>
        <path fill="#51E0B7" d="M18.794 28.065l-7.665-5.802L18.799 35l7.652-12.747z"/>
        <path fill="#00C18A" d="M18.854 28.065L18.86 35l7.592-12.747z"/>
        <path fill="#51E0B7" d="M11 20.306l7.793 5.552 7.786-5.562-7.8-15.167z"/>
        <path fill="#00C18A" d="M26.708 20.296l-7.84 5.562-.014-20.73z"/>
        <circle cx="20" cy="20" r="20" stroke="#3FA296"/>
    </g>
</svg>
