<svg xmlns="http://www.w3.org/2000/svg" width="60" height="72" viewBox="0 0 60 72">
    <g fill="#3FA296" fill-rule="evenodd">
        <path d="M6.121 35.99c.09.215.208.426.364.619 17.95-3.717 30.445-13.525 36.339-19.093l.257-.24a1.557 1.557 0 0 1 2.2.078c.815.875 2.127 2.534 3.227 3.966 1.055-4.264 2.853-12.026 3.482-17.747-5.303 1.174-11.764 2.283-15.463 2.888l3.198 3.295a1.57 1.57 0 0 1 .232 1.877C31.873 25.598 12.416 33.674 6.121 35.989m-.095 3.874c-.317 0-.629-.097-.892-.282-1.464-1.025-2.338-2.755-2.338-4.623 0-.669.423-1.264 1.053-1.48 4.043-1.396 24.223-8.909 32.797-22.407L32.193 6.48a1.565 1.565 0 0 1 .883-2.637c.125-.02 12.446-1.908 20.285-3.8.476-.117.988.006 1.366.322.379.317.585.798.557 1.291-.481 8.341-4.393 22.98-4.558 23.6a1.56 1.56 0 0 1-2.76.526c-.027-.037-2.305-3.108-3.949-5.109-6.566 5.984-19.484 15.595-37.691 19.16-.1.02-.2.03-.3.03M18.725 67.044h-3.12V51.392H7.801v15.652h-3.12V48.262h14.043zM35.89 67.044h-3.121V43.566h-7.802v23.478h-3.121V40.436h14.043zM53.054 67.044h-3.12v-32.87H42.13v32.87h-3.12v-36h14.043zM0 71.74h59.296v-3.13H0z"/>
    </g>
</svg>
