<svg xmlns="http://www.w3.org/2000/svg" width="72" height="72" viewBox="0 0 72 72">
    <g fill="none" fill-rule="evenodd">
        <g fill="#3FA296">
            <path d="M36 54.632c-10.274 0-18.632-8.358-18.632-18.632 0-10.274 8.358-18.632 18.632-18.632 10.274 0 18.632 8.358 18.632 18.632 0 10.274-8.358 18.632-18.632 18.632M36 11c-13.807 0-25 11.193-25 25s11.193 25 25 25 25-11.193 25-25-11.193-25-25-25"/>
            <path d="M24.366 34.314h7.967v15.795h6.94V34.314h8.36v-6.977H24.367z"/>
        </g>
        <circle cx="36" cy="36" r="34.5" stroke="#3FA296" stroke-width="3"/>
    </g>
</svg>
