<svg xmlns="http://www.w3.org/2000/svg" width="120" height="30" viewBox="0 0 120 30">
    <g fill="#69C6BA" fill-rule="evenodd">
        <path d="M50.535 6.544l-2.798 11.482-2.305-11.482h-3.904l-2.361 11.538-2.97-11.538H32.13l5.135 17.211h3.702l2.472-11.406 2.428 11.406h3.63l4.98-17.211zM58 15.763c.305-1.338 1.143-2.069 2.392-2.069 1.596 0 2.206 1.05 2.422 2.069H58zm8.68 2.317c-.077-4.563-2.524-7.398-6.387-7.398-3.659 0-6.214 2.76-6.214 6.71 0 3.937 2.657 6.685 6.462 6.685 2.938 0 5.238-1.603 6.002-4.184l.13-.438h-3.784l-.096.18c-.49.913-1.243 1.357-2.302 1.357-1.743 0-2.375-1.318-2.584-2.565h8.78l-.006-.347zM80.632 6.544H66.27v3.284h5.228v13.927h3.954V9.828h5.179z"/>
        <path d="M85.172 10.757c-1.013 0-1.903.415-2.657 1.237v-.99h-3.706v12.751h3.706v-6.462c0-2.02 1.095-3.227 2.93-3.227.09 0 .3 0 .478.022l.383.048v-3.29l-.298-.037c-.418-.052-.612-.052-.836-.052M95.165 18.086c0 .952-.128 1.465-.474 1.898-.357.462-1.01.76-1.663.76-.827 0-1.408-.375-1.635-1.056-.13-.391-.156-.573-.156-1.775v-6.908h-3.705v7.081c0 1.59.05 2.207.237 2.872.57 1.924 2.166 3.12 4.168 3.12 1.187 0 2.184-.355 3.228-1.167v.844h3.705v-12.75h-3.705v7.081zM110.485 16.925c-.717-.558-1.488-.822-3.298-1.132-1.657-.293-2.191-.415-2.599-.597-.275-.12-.44-.328-.44-.554 0-.617.757-1.047 1.84-1.047 1.176 0 1.816.44 2.074 1.43l.066.255h3.293l-.038-.376c-.266-2.604-2.371-4.222-5.494-4.222-2.998 0-5.174 1.78-5.174 4.232 0 1.179.56 2.16 1.619 2.84.795.512 2.102.922 4.117 1.288 1.69.286 1.773.536 1.773.952 0 .712-.77 1.171-1.964 1.171-1.42 0-2.15-.518-2.365-1.679l-.052-.279h-3.437l.038.376c.291 2.856 2.42 4.494 5.841 4.494 3.272 0 5.471-1.72 5.471-4.281 0-1.173-.449-2.19-1.271-2.871M119.248 20.868l-.82.024c-.393 0-.714-.107-.85-.293-.117-.147-.173-.316-.173-1.224v-5.78h2.28v-2.59h-2.28V6.99H113.7v4.015h-1.685v2.59h1.685v5.78c0 1.167.03 1.644.13 2.122.197 1.011.735 1.677 1.642 2.034.497.205.782.224 1.89.224h2.497v-2.948l-.611.061zM14.727.185C6.593.185 0 6.778 0 14.912c0 8.133 6.593 14.726 14.727 14.726 8.133 0 14.726-6.593 14.726-14.726C29.453 6.778 22.86.185 14.727.185m0 3.75c6.052 0 10.975 4.925 10.975 10.977 0 6.052-4.923 10.975-10.975 10.975S3.75 20.964 3.75 14.912 8.675 3.936 14.727 3.936"/>
        <path d="M21.533 9.796H7.907v4.101h4.666v9.285h4.064v-9.285h4.896z"/>
    </g>
</svg>
