<svg xmlns="http://www.w3.org/2000/svg" width="127" height="14" viewBox="0 0 127 14">
    <path fill="#B1B1B1" fill-rule="nonzero" d="M10.864 4.216L7.68 4.28c-.176-.944-.864-1.52-1.776-1.52-1.232 0-2.08 1.168-2.08 2.864 0 1.68.912 2.944 2.128 2.944.96 0 1.552-.608 1.728-1.744h3.264c-.112 1.088-.368 1.808-.88 2.512-.88 1.2-2.384 1.904-4.064 1.904-3.136 0-5.376-2.368-5.376-5.664 0-3.184 2.24-5.488 5.344-5.488 2.56 0 4.432 1.568 4.896 4.128zm1.296-.944h2.832v1.072c.688-.88 1.392-1.28 2.288-1.28.304 0 .512.032.928.16v2.672c-.592-.224-.816-.272-1.2-.272-1.136 0-1.856.72-1.856 1.856V11H12.16V3.272zm6.656 0h3.168l.8 2.848c.128.48.176.688.368 1.44.016.096.048.224.08.336.048-.176.08-.304.08-.336.048-.176.08-.336.128-.496.032-.16.08-.32.128-.48.048-.208.096-.432.112-.464l.768-2.848h3.168L24.8 11c-.672 1.872-1.392 2.448-3.056 2.448h-2.112V11.16h1.04c.496 0 .784-.224.784-.624 0-.112-.048-.32-.128-.528l-2.512-6.736zm9.6 0h2.832v.688c.64-.64 1.248-.896 2.16-.896 2.16 0 3.52 1.616 3.52 4.16 0 2.432-1.328 3.984-3.376 3.984-.864 0-1.536-.256-2.144-.832v3.072h-2.992V3.272zm4.208 2.08c-.832 0-1.328.672-1.328 1.76 0 1.152.48 1.808 1.328 1.808.816 0 1.312-.656 1.312-1.792 0-1.12-.496-1.776-1.312-1.776zm10.464-2.08v1.872h-1.392v2.864c0 .656.24.928.8.928.24 0 .416-.032.592-.096v2.032c-.64.16-1.152.24-1.648.24-.88 0-1.584-.272-2.08-.784-.464-.48-.656-1.152-.656-2.208V5.144h-1.136V3.272h1.136V.968h2.992v2.304h1.392zm5.184-.208c2.512 0 4.336 1.728 4.336 4.128 0 2.272-1.872 4.016-4.336 4.016-2.464 0-4.32-1.744-4.32-4.08 0-2.32 1.856-4.064 4.32-4.064zm0 2.128c-.864 0-1.328.672-1.328 1.936 0 1.28.464 1.952 1.344 1.952.848 0 1.328-.672 1.328-1.92 0-1.296-.464-1.968-1.344-1.968zM60.608.328h3.2v6.88c0 1.44-.352 2.288-1.2 2.976-.896.72-2.08 1.056-3.616 1.056-1.552 0-2.72-.336-3.616-1.056-.864-.688-1.216-1.536-1.216-2.976V.328h3.2v6.576c0 1.072.576 1.664 1.616 1.664 1.056 0 1.632-.592 1.632-1.664V.328zm5.248 2.944h2.832v.912c.656-.8 1.312-1.12 2.288-1.12.832 0 1.536.256 2.064.768.576.544.832 1.296.832 2.368V11H70.88V6.792c0-.784-.352-1.2-1.008-1.2s-1.024.432-1.024 1.2V11h-2.992V3.272zM78.592.328V11H75.6V.328h2.992zm5.696 2.736c2.512 0 4.336 1.728 4.336 4.128 0 2.272-1.872 4.016-4.336 4.016-2.464 0-4.32-1.744-4.32-4.08 0-2.32 1.856-4.064 4.32-4.064zm0 2.128c-.864 0-1.328.672-1.328 1.936 0 1.28.464 1.952 1.344 1.952.848 0 1.328-.672 1.328-1.92 0-1.296-.464-1.968-1.344-1.968zm13.696 1.04h-2.896c-.16-.704-.528-1.04-1.168-1.04-.832 0-1.344.736-1.344 1.904 0 1.216.512 1.968 1.328 1.968.72 0 1.184-.496 1.28-1.344h2.864c-.128 1.168-.416 1.808-1.056 2.416-.736.704-1.808 1.072-3.072 1.072-2.56 0-4.272-1.632-4.272-4.08 0-2.4 1.76-4.064 4.304-4.064 2.256 0 3.84 1.248 4.032 3.168zm7.008.032L108.176 11h-3.536l-1.584-2.72-.56.576V11h-2.992V.328h2.992v5.2l1.936-2.256h3.472l-2.912 2.992zm11.888 1.584h-5.68c.112.784.704 1.28 1.552 1.28.512 0 .864-.16 1.088-.512h2.912c-.352 1.504-2.08 2.592-4.096 2.592-2.608 0-4.416-1.68-4.416-4.096 0-2.336 1.824-4.048 4.336-4.048 1.76 0 3.2.848 3.888 2.32.288.64.416 1.328.416 2.464zm-5.664-1.6h2.672c-.08-.752-.592-1.216-1.344-1.216-.736 0-1.248.464-1.328 1.216zM126.4.328V11h-2.816v-.704c-.752.72-1.2.912-2.096.912-2.176 0-3.6-1.648-3.6-4.16 0-2.384 1.344-3.984 3.36-3.984.848 0 1.44.24 2.16.864v-3.6h2.992zm-4.208 5.024c-.816 0-1.312.672-1.312 1.776 0 1.12.496 1.792 1.312 1.792.816 0 1.328-.688 1.328-1.76 0-1.136-.496-1.808-1.328-1.808z"/>
</svg>
