<svg xmlns="http://www.w3.org/2000/svg" width="75" height="11" viewBox="0 0 75 11">
    <path fill="#B1B1B1" fill-rule="nonzero" d="M8.743 3.535H6.376v-.173c0-.884-.695-1.39-1.894-1.39-1.12 0-1.8.411-1.8 1.074 0 .442.317.742.964.9l2.13.489c1.168.284 1.815.568 2.32 1.041.537.49.805 1.168.805 2.005C8.901 9.659 7.228 11 4.498 11 1.658 11 .016 9.643 0 7.291h2.367c.048 1.2.726 1.736 2.162 1.736 1.216 0 1.957-.442 1.957-1.183 0-.521-.378-.884-1.136-1.074l-1.91-.473c-1.12-.268-1.814-.568-2.288-.978C.615 4.877.316 4.103.316 3.25.316 1.215 1.878 0 4.546 0 6.25 0 7.448.505 8.127 1.5c.347.52.52 1.088.615 2.035zm8.175 3.646v3.582h-2.367V.237h4.135c1.436 0 2.193.205 2.872.805.726.647 1.136 1.61 1.136 2.746 0 .962-.3 1.799-.9 2.43-.63.663-1.435.963-2.65.963h-2.226zm0-2.02h1.862c.932 0 1.5-.553 1.5-1.452 0-.916-.568-1.452-1.5-1.452h-1.862V5.16zm13.51 1.388v4.214h-2.32V.237H32.7c1.357 0 2.115.173 2.746.631.647.473 1.01 1.263 1.01 2.21 0 1.278-.568 2.098-1.752 2.54 1.042.332 1.405.884 1.484 2.273l.079 1.5c.047.694.126.93.426 1.372h-2.32c-.284-.22-.363-.378-.395-.915l-.094-1.436c-.095-1.294-.663-1.863-1.878-1.863h-1.578zm0-1.862h2.32c.867 0 1.341-.442 1.341-1.215 0-.773-.474-1.215-1.342-1.215h-2.32v2.43zM44.82.237v10.526h-2.368V.237h2.368zm14.724 10.526h-2.367l-2.983-5.381-1.089-2.052c.032.552.032.947.032 1.263.016.568.016 1.183.016 1.846v4.324H50.99V.237h2.462l2.904 5.24c.41.788.679 1.34 1.073 2.13-.031-.426-.031-.71-.031-1.026l-.016-.789V.237h2.162v10.526zM70.403 4.94h4.593v5.823h-1.42l-.332-1.341C72.518 10.558 71.618 11 70.088 11c-2.983 0-4.814-2.067-4.814-5.429 0-3.377 2.02-5.571 5.113-5.571 2.305 0 4.04 1.31 4.53 3.425l-2.289.142c-.252-.979-1.073-1.563-2.225-1.563-1.704 0-2.762 1.294-2.762 3.41 0 2.272 1.026 3.629 2.746 3.629 1.342 0 2.352-.836 2.589-2.162h-2.573V4.94z"/>
</svg>
