<svg xmlns="http://www.w3.org/2000/svg" xmlns:xlink="http://www.w3.org/1999/xlink" width="90" height="16" viewBox="0 0 90 16">
    <defs>
        <path id="a" d="M0 .005h15.866v15.866H0z"/>
    </defs>
    <g fill="none" fill-rule="evenodd">
        <path fill="#B1B1B1" d="M7.933 12.102a4.168 4.168 0 0 1-4.164-4.164 4.168 4.168 0 0 1 4.164-4.163 4.168 4.168 0 0 1 4.164 4.163 4.168 4.168 0 0 1-4.164 4.164m0-9.75a5.587 5.587 0 1 0 0 11.173 5.587 5.587 0 0 0 0-11.173"/>
        <path fill="#B1B1B1" d="M5.333 7.561h1.78v3.53h1.551V7.56h1.868V6.002H5.333z"/>
        <g>
            <mask id="b" fill="#fff">
                <use xlink:href="#a"/>
            </mask>
            <path fill="#B1B1B1" d="M7.933 15.424c-4.128 0-7.486-3.358-7.486-7.486S3.805.452 7.933.452s7.486 3.358 7.486 7.486-3.358 7.486-7.486 7.486m0-15.419C3.559.005 0 3.564 0 7.938s3.559 7.933 7.933 7.933 7.933-3.559 7.933-7.933S12.307.005 7.933.005" mask="url(#b)"/>
        </g>
        <g fill="#B1B1B1">
            <path d="M21 11.262l.693-.891c.623.693 1.641 1.344 2.971 1.344 1.684 0 2.221-.906 2.221-1.627 0-2.434-5.588-1.09-5.588-4.457 0-1.556 1.387-2.617 3.24-2.617 1.443 0 2.56.481 3.353 1.316l-.708.863c-.707-.778-1.697-1.132-2.73-1.132-1.132 0-1.938.608-1.938 1.5 0 2.122 5.588.905 5.588 4.428 0 1.372-.934 2.773-3.48 2.773-1.641 0-2.844-.623-3.622-1.5M34.228 12.592v-8.39h-2.985V3.157h7.159v1.047h-3v8.389zM44.684 4.372l-2.01 5.08h4.005l-1.995-5.08zm3.183 8.22l-.835-2.094h-4.697l-.834 2.094h-1.344l3.791-9.436h1.457l3.806 9.436h-1.344zM58.266 12.592l-3.58-4.244-.947 1.075v3.169h-1.175V3.156h1.175v4.88l4.173-4.88h1.471L55.45 7.64l4.273 4.952zM63.19 12.592h1.174V3.156h-1.175zM75.37 12.592l-5.503-7.526v7.526h-1.174V3.156h1.203l5.432 7.37v-7.37h1.174v9.436zM80.45 7.88c0-2.928 2.165-4.88 4.853-4.88 1.669 0 2.829.736 3.664 1.768l-.934.58c-.594-.764-1.599-1.301-2.73-1.301-2.066 0-3.636 1.584-3.636 3.834 0 2.235 1.57 3.848 3.636 3.848 1.131 0 2.065-.552 2.532-1.019V8.786h-3.24V7.74h4.414v3.41c-.877.976-2.164 1.627-3.706 1.627-2.688 0-4.853-1.967-4.853-4.895"/>
        </g>
    </g>
</svg>
