<svg xmlns="http://www.w3.org/2000/svg" width="194" height="24" viewBox="0 0 194 24">
    <g fill="none" fill-rule="evenodd">
        <g fill="#9E9E9E">
            <path d="M7.14 13.197a1.136 1.136 0 0 0-1.444.7 1.133 1.133 0 0 0 1.072 1.505 1.134 1.134 0 0 0 .372-2.205M2.167 13.095c.02-.189.018-.382.044-.58.027-.365.083-.744.14-1.13a3.026 3.026 0 0 1-1.682-.36l-.004.125c0 .124.004.247.007.368.002.06.002.12.005.18l.015.18.03.35c.014.115.028.229.046.34l.025.166.03.162c.021.107.04.213.064.316.053.205.1.403.157.59.064.185.114.363.181.528.07.164.125.32.194.463.07.142.131.275.194.395.066.12.128.23.187.326l.081.137c.027.042.055.079.079.115a7.813 7.813 0 0 0 .238.328l-.006-.185c-.002-.12-.021-.296-.026-.513-.002-.11-.01-.227-.016-.355 0-.13-.006-.269-.01-.417-.004-.295-.005-.625.004-.98l.023-.549M6.724 2.444c-.058.017-.13.038-.212.065-.042.013-.088.026-.135.043l-.148.058c-.105.04-.22.087-.346.141-.124.056-.254.123-.396.192-.141.07-.282.16-.438.247-.154.09-.304.199-.468.306-.16.112-.319.239-.486.369-.082.067-.162.139-.244.21l-.125.11-.122.115c-.082.077-.162.159-.245.24L3.12 4.8 3 4.931l-.115.14c-.077.094-.156.188-.232.286l-.026.037c.576.1 1.11.367 1.538.759.181-.32.36-.635.552-.922.101-.173.22-.325.322-.485.108-.155.215-.304.319-.448.21-.286.413-.545.598-.776.094-.115.184-.22.264-.323.084-.1.163-.188.232-.273.139-.17.257-.294.333-.388l.118-.143s-.062.016-.178.049M13.31 6.483c-.055-.027-.136-.073-.243-.122a3.845 3.845 0 0 0-.179-.08c-.066-.025-.14-.047-.217-.073-.078-.026-.163-.05-.252-.077-.09-.027-.185-.038-.285-.059a9.048 9.048 0 0 0-.316-.051c-.11-.009-.223-.014-.341-.021-.06-.004-.119-.006-.18-.008-.06.001-.121.005-.183.008-.124.005-.25.016-.38.026l-.112.017c.182.257.288.562.3.88.103-.025.206-.047.306-.076.052-.013.104-.029.155-.04l.155-.03c.101-.021.2-.04.298-.063l.283-.042c.092-.014.18-.033.265-.041.085-.01.166-.016.243-.025.077-.01.15-.018.217-.028l.186-.012c.113-.007.205-.02.268-.024l.096-.012s-.028-.018-.084-.047M7.742 7.463c-.06.06-.12.121-.176.182l-.124.135a5.296 5.296 0 0 0-.11.141c-.071.095-.14.185-.204.274a6.94 6.94 0 0 0-.165.274c-.05.09-.102.17-.14.256-.038.087-.075.167-.106.245-.032.077-.062.147-.086.213a3.654 3.654 0 0 0-.052.184c-.03.112-.048.203-.063.263-.014.06-.02.094-.02.094s.027-.022.072-.065c.044-.044.112-.106.192-.19l.132-.138c.051-.045.103-.095.16-.147.057-.051.113-.108.174-.165.06-.058.132-.115.202-.175.071-.06.14-.126.216-.189.08-.06.158-.124.24-.187.041-.032.081-.065.122-.1l.132-.091c.031-.02.062-.043.092-.065a1.634 1.634 0 0 1-.488-.75M10.302 6.46l-.005-.007a1.127 1.127 0 0 0-.133-.198l-.01-.013a1.128 1.128 0 0 0-.858-.393 1.136 1.136 0 0 0-1.13 1.24c.004.04.01.081.018.12l.002.008c.008.038.018.076.03.113l.002.007a1.135 1.135 0 0 0 1.077.78c.471 0 .91-.294 1.073-.762a1.129 1.129 0 0 0-.066-.894M17.241 8.534a1.138 1.138 0 0 0-.465-.06v.001a1.121 1.121 0 0 0-.361.092l-.02.009a1.142 1.142 0 0 0-.39.295l-.013.015a1.14 1.14 0 0 0-.195.347 1.134 1.134 0 0 0 1.072 1.506c.036 0 .07-.002.105-.005l.03-.004.079-.012.026-.005c.07-.015.138-.037.204-.065l.011-.005c.03-.013.06-.028.09-.045a1.129 1.129 0 0 0 .527-.622 1.134 1.134 0 0 0-.7-1.442M15.417 8.283c.065.087.135.172.204.26l.007.01a1.63 1.63 0 0 1 .781-.508l-.098-.104c-.096-.088-.19-.174-.284-.255l-.14-.119a5.946 5.946 0 0 0-.147-.104c-.098-.067-.191-.134-.283-.194a9.091 9.091 0 0 0-.282-.154c-.092-.045-.174-.095-.263-.13-.088-.034-.171-.068-.25-.096-.078-.028-.15-.056-.218-.077a4.183 4.183 0 0 0-.187-.045c-.113-.026-.204-.04-.266-.052a2.065 2.065 0 0 0-.095-.016s.023.025.068.069c.046.042.112.108.2.184l.144.126c.047.05.1.1.154.155.054.054.113.108.173.167.06.057.12.128.184.195l.199.208c.063.077.13.153.197.233l.104.118c.034.042.065.086.098.129M17.793 10.944c-.246.169-.538.27-.848.285l.028.092.048.155c.01.051.022.103.034.153.025.101.048.2.074.297.021.096.034.191.053.282.018.092.04.18.051.264.012.085.022.166.034.242.013.077.023.15.036.217l.019.186c.011.113.027.204.034.266l.015.097s.017-.03.044-.086c.026-.057.068-.14.113-.248.024-.055.05-.115.074-.183.022-.067.042-.14.065-.22.023-.08.044-.165.068-.255.022-.09.03-.187.048-.288.014-.101.029-.208.04-.318.004-.11.005-.224.008-.343v-.18l-.015-.183a6.854 6.854 0 0 0-.023-.232M15.455 16.672l-.003-.013a1.127 1.127 0 0 0-.028-.108l-.005-.014a1.127 1.127 0 0 0-.041-.108l-.003-.005a1.13 1.13 0 0 0-1.034-.668 1.136 1.136 0 0 0-1.13 1.038c-.018.217.027.431.124.619l.005.007c.017.034.037.066.058.097l.01.015c.02.03.042.058.065.086l.01.012a1.133 1.133 0 0 0 1.971-.959M12.715 16.951c-.093.024-.186.044-.276.07l-.16.044c-.054.01-.108.018-.16.03-.105.021-.207.04-.307.064l-.293.042c-.094.014-.186.033-.273.04-.088.01-.17.015-.25.025-.08.009-.154.016-.224.026l-.192.01c-.116.006-.21.017-.275.022l-.1.01s.03.018.087.048c.057.028.14.074.25.125.056.026.117.054.185.082.068.025.143.048.224.074.08.027.168.05.26.078.092.028.19.039.294.06.104.018.212.036.325.051.114.008.231.013.353.02.06.003.122.004.185.006.062-.002.125-.006.189-.01.127-.006.258-.018.391-.03l.065-.01a1.631 1.631 0 0 1-.298-.877M17.166 14.023c-.043.047-.111.114-.19.203l-.129.148c-.051.048-.103.102-.16.157-.056.056-.112.116-.172.177-.06.062-.132.123-.201.188-.072.064-.14.134-.216.202-.08.064-.16.132-.242.2-.041.034-.082.07-.122.106l-.134.098c-.068.049-.134.1-.201.152.24.205.412.474.501.771l.02-.018a9.74 9.74 0 0 0 .267-.287l.125-.141c.038-.05.075-.1.11-.15.071-.098.141-.192.205-.286.058-.098.112-.194.163-.286.048-.094.1-.177.137-.267.037-.09.073-.175.103-.255.03-.08.06-.154.083-.223a3.84 3.84 0 0 0 .048-.19c.028-.116.044-.21.058-.272.012-.063.017-.098.017-.098l-.07.07M9.67 17.105c-.047-.043-.114-.11-.204-.188l-.149-.129-.158-.158c-.056-.056-.117-.112-.178-.171-.062-.06-.124-.132-.19-.2l-.203-.214c-.064-.08-.133-.159-.202-.24a4.214 4.214 0 0 0-.106-.123l-.1-.132c-.055-.077-.114-.15-.173-.227a1.63 1.63 0 0 1-.775.503l.044.049c.097.091.193.181.29.265.048.042.094.084.142.124.05.038.1.074.15.11.099.07.194.138.288.201.098.058.194.111.287.161.094.048.178.1.268.136.091.036.176.072.256.101.08.03.154.058.223.081.07.02.133.034.191.047.116.028.21.043.273.056.063.012.098.017.098.017l-.071-.07"/>
            <path d="M7.715 14.893a3.125 3.125 0 0 1-.124-.203c-.13-.2-.234-.42-.35-.632-.096-.22-.205-.437-.284-.663a3.55 3.55 0 0 1-.095-.257 1.14 1.14 0 0 0-.923.356c.02.075.043.15.066.224.071.273.195.532.306.795.14.25.269.505.441.729l.111.156c.343-.03.66-.213.852-.505M5.826 12.916l.004.023c.252-.178.554-.283.874-.295-.02-.082-.04-.162-.063-.241l-.044-.16-.031-.159c-.023-.104-.043-.207-.066-.307-.018-.1-.028-.197-.045-.291-.014-.095-.034-.186-.042-.273-.01-.087-.016-.17-.026-.25-.01-.079-.017-.153-.027-.223l-.012-.191c-.006-.117-.018-.21-.023-.275a39.83 39.83 0 0 0-.012-.1s-.017.03-.046.087c-.028.058-.074.141-.124.252a3.913 3.913 0 0 0-.081.184c-.025.069-.047.144-.073.224-.026.081-.05.168-.077.26-.026.092-.037.191-.057.294a8.556 8.556 0 0 0-.05.326c-.007.113-.01.23-.017.351-.003.06-.004.123-.005.185l.01.189c.008.127.02.258.033.39M4.009 7.451a2.1 2.1 0 0 0-.29-.441l.001-.002c-.015-.019-.032-.036-.048-.054l-.007-.008a2.104 2.104 0 0 0-.209-.198l-.008-.007a2.168 2.168 0 0 0-.102-.078l-.018-.012a2.056 2.056 0 0 0-.364-.207l-.016-.006a2.011 2.011 0 0 0-.115-.046l-.017-.006a2.1 2.1 0 0 0-.27-.077l-.009-.001a2.017 2.017 0 0 0-.262-.037l-.029-.003a2.03 2.03 0 0 0-.134-.005h-.003c-.31 0-.623.069-.92.213a2.106 2.106 0 0 0 .541 3.967l.031.005c.047.008.095.015.143.02l.036.003c.057.005.114.008.172.008h.005c.065 0 .13-.004.196-.01l.015-.001c.064-.007.129-.017.193-.03l.011-.002a2.106 2.106 0 0 0 1.476-2.984M16.889 3.09l.016-.032c.028-.056.054-.113.077-.171l.014-.038c.012-.031.023-.062.033-.094l.02-.07a2.182 2.182 0 0 0 .08-.515 2.093 2.093 0 0 0-.21-.975 2.11 2.11 0 0 0-3.651-.249l-.02.03a2.14 2.14 0 0 0-.196.387l-.002.006c-.04.107-.072.216-.095.328l-.003.013a2.12 2.12 0 0 0-.03.217l-.001.007a2.09 2.09 0 0 0 .03.583 2.098 2.098 0 0 0 2.071 1.706 2.104 2.104 0 0 0 1.354-.495c.156-.131.29-.282.4-.447l.007-.01c.039-.06.074-.12.106-.181M20.958 6.726a6.17 6.17 0 0 0-.061-.207c-.013-.04-.025-.085-.041-.131a8.978 8.978 0 0 0-.189-.481c-.053-.12-.117-.248-.183-.386-.067-.138-.152-.276-.236-.427-.085-.15-.19-.297-.292-.458-.108-.156-.229-.311-.353-.475-.064-.08-.133-.158-.202-.24a5.004 5.004 0 0 0-.215-.24c-.074-.081-.152-.16-.23-.24l-.248-.236-.127-.12-.134-.113c-.09-.076-.181-.153-.275-.229-.054-.042-.11-.083-.167-.125a3.014 3.014 0 0 1-.767 1.556c.35.202.693.397 1.005.608.167.1.315.214.47.314l.435.31c.277.205.53.401.755.58.112.09.214.178.315.255.096.08.183.157.266.224.166.134.288.248.38.32l.14.114s-.014-.06-.046-.173M12.16 1.126c.052-.148.114-.29.186-.427h-.294l-.174.01-.342.02a9.626 9.626 0 0 0-.651.08c-.105.017-.208.033-.309.053-.2.044-.394.085-.577.134-.182.056-.356.1-.518.16-.162.062-.316.112-.456.174-.14.063-.271.118-.39.176-.12.06-.227.117-.323.17l-.136.075c-.041.025-.078.05-.114.073a7.11 7.11 0 0 0-.18.118l-.147.102.18.004c.116.003.29-.007.5-.001h.346c.127.006.261.006.405.009l.455.016.496.028c.173.015.35.026.533.043.183.025.37.032.562.064.257.027.52.07.787.118a3.014 3.014 0 0 1 .161-1.2M21.682 12.482c.462.024.902.15 1.296.366l.005-.265c-.002-.12-.008-.24-.012-.358-.002-.06-.003-.118-.007-.177l-.017-.174c-.01-.114-.022-.228-.033-.34a9.615 9.615 0 0 0-.107-.65c-.021-.104-.041-.207-.065-.307-.053-.2-.1-.391-.158-.572-.064-.18-.115-.354-.182-.513-.069-.16-.125-.312-.193-.45-.069-.138-.13-.267-.192-.383a8.665 8.665 0 0 0-.185-.317l-.08-.132-.078-.112a7.654 7.654 0 0 0-.125-.175l-.11-.143.005.18c.001.116.019.29.022.5.002.107.01.222.014.347 0 .127.006.262.009.406.003.288.004.61-.005.954l-.02.536c-.019.184-.018.372-.042.565-.026.386-.085.788-.142 1.199l-.004.023c.134-.012.27-.015.406-.008M23.422 14.582a2.099 2.099 0 0 0-.946-.96l-.011-.005a2.1 2.1 0 0 0-.13-.06l-.046-.018a2.159 2.159 0 0 0-.26-.082l-.056-.014a2.098 2.098 0 0 0-.329-.045h-.01l-.034-.001c-.026-.001-.051-.003-.077-.003a2.106 2.106 0 0 0-1.036 3.942l.007.004.085.045.034.016a2.122 2.122 0 0 0 .475.162l.024.005c.034.007.067.013.101.018l.056.007.07.007.065.005.012.001h.022c.03.002.058.004.088.004l.053-.002h.002a2.106 2.106 0 0 0 1.841-3.026M19.491 17.741a18.726 18.726 0 0 1-.974 1.599c-.195.285-.384.545-.555.778-.086.115-.17.22-.244.324-.078.1-.152.19-.216.275-.128.17-.238.297-.308.392l-.109.144s.06-.016.172-.052c.057-.018.125-.04.206-.07a8.398 8.398 0 0 0 .606-.254c.119-.057.244-.126.38-.197.136-.073.271-.163.42-.252.147-.092.29-.201.448-.31.152-.115.305-.24.464-.372.078-.068.154-.14.233-.211.08-.072.157-.147.234-.225.078-.077.154-.158.232-.24l.227-.257.115-.132a280.291 280.291 0 0 0 .161-.205 2.999 2.999 0 0 1-1.492-.735M10.312 23.01a2.132 2.132 0 0 0 .412-1.264v-.05c0-.035-.003-.07-.006-.106 0-.015-.003-.031-.004-.047a2.12 2.12 0 0 0-.026-.176l-.004-.025h-.001a2.099 2.099 0 0 0-2.068-1.692 2.106 2.106 0 0 0-2.1 1.941v.008c-.028.36.034.73.203 1.078a2.11 2.11 0 0 0 3.594.333M5.757 20.767c.14-.401.357-.761.638-1.064-.339-.194-.67-.383-.973-.588-.172-.102-.324-.222-.485-.325-.154-.108-.302-.217-.446-.321a24.57 24.57 0 0 1-.774-.603c-.114-.094-.218-.185-.321-.266-.099-.084-.187-.164-.272-.234-.169-.14-.293-.258-.386-.335a95.95 95.95 0 0 1-.143-.118s.015.062.048.178c.016.058.037.13.064.213.013.041.026.087.043.134l.056.149c.04.105.086.22.14.346.055.124.12.254.19.397.07.142.157.283.244.439.088.154.197.305.303.47.112.16.238.32.367.488.066.082.138.162.21.245l.108.125.115.122c.077.083.158.164.24.247l.256.24.132.122.14.116c.093.078.187.157.285.233l.097.072c.028-.162.07-.323.124-.482M16.101 21.7c-.12.002-.297.02-.514.023-.11.002-.227.01-.355.014-.131 0-.27.005-.418.008-.296.002-.626.001-.98-.01l-.55-.026c-.19-.02-.384-.02-.582-.048a14.57 14.57 0 0 1-1.066-.137 3.01 3.01 0 0 1-.356 1.672l.046.001c.123.002.247-.002.368-.004l.181-.004.18-.014.35-.028a9.978 9.978 0 0 0 .508-.067l.163-.03c.107-.02.213-.04.316-.062.206-.051.404-.097.591-.153.187-.063.365-.112.53-.178.166-.068.323-.123.466-.191.143-.069.276-.13.396-.192.121-.065.231-.126.328-.184l.138-.08c.042-.027.08-.054.115-.079.072-.048.132-.09.181-.126l.15-.109-.186.004"/>
        </g>
        <text fill="#B1B1B1" font-family="NimbusSan-Bol, Nimbus Sans" font-size="16" font-weight="bold" transform="translate(-4 -4)">
            <tspan x="33" y="21">TrustedLendingCircles</tspan>
        </text>
    </g>
</svg>
